<svg width="1734" height="294" viewBox="0 0 1734 294" fill="none" xmlns="http://www.w3.org/2000/svg">
<path d="M0 289.5V0.409479H108.409C130.618 0.409479 149.251 4.26779 164.308 11.9844C179.458 19.701 190.892 30.5231 198.609 44.4507C206.42 58.2841 210.325 74.4232 210.325 92.8678C210.325 111.406 206.373 127.498 198.468 141.144C190.657 154.695 179.129 165.188 163.884 172.622C148.639 179.962 129.912 183.632 107.703 183.632H30.4901V140.156H100.645C113.632 140.156 124.266 138.368 132.547 134.792C140.828 131.121 146.945 125.805 150.898 118.841C154.944 111.783 156.967 103.125 156.967 92.8678C156.967 82.6103 154.944 73.8585 150.898 66.6124C146.851 59.2722 140.687 53.72 132.406 49.9558C124.125 46.0975 113.444 44.1684 100.363 44.1684H52.3695V289.5H0ZM149.345 158.506L220.912 289.5H162.472L92.176 158.506H149.345Z" fill="url(#paint0_linear_5_2)"/>
<path d="M349.154 293.735C327.415 293.735 308.641 289.218 292.832 280.184C277.116 271.056 265.024 258.163 256.554 241.507C248.085 224.756 243.85 205.041 243.85 182.362C243.85 160.059 248.085 140.485 256.554 123.64C265.118 106.701 277.069 93.5265 292.408 84.116C307.747 74.6114 325.768 69.8591 346.471 69.8591C359.834 69.8591 372.445 72.0235 384.302 76.3523C396.253 80.587 406.793 87.1744 415.921 96.1144C425.143 105.054 432.389 116.441 437.659 130.275C442.929 144.014 445.564 160.388 445.564 179.397V195.066H267.847V160.623H396.582C396.488 150.836 394.371 142.132 390.23 134.509C386.09 126.793 380.302 120.723 372.868 116.3C365.528 111.877 356.964 109.666 347.177 109.666C336.732 109.666 327.556 112.206 319.652 117.288C311.747 122.276 305.583 128.863 301.16 137.05C296.831 145.143 294.62 154.036 294.525 163.729V193.795C294.525 206.406 296.831 217.228 301.442 226.262C306.053 235.202 312.5 242.071 320.781 246.871C329.062 251.576 338.755 253.929 349.859 253.929C357.294 253.929 364.022 252.893 370.045 250.823C376.068 248.659 381.29 245.506 385.713 241.366C390.136 237.225 393.477 232.096 395.736 225.979L443.447 231.343C440.435 243.954 434.695 254.964 426.226 264.374C417.85 273.691 407.122 280.937 394.042 286.113C380.961 291.194 365.998 293.735 349.154 293.735Z" fill="url(#paint1_linear_5_2)"/>
<path d="M676.251 72.6822L599.038 289.5H542.575L465.362 72.6822H519.848L569.677 233.743H571.936L621.905 72.6822H676.251Z" fill="url(#paint2_linear_5_2)"/>
<path d="M800.223 293.735C778.485 293.735 759.711 289.218 743.901 280.184C728.185 271.056 716.093 258.163 707.623 241.507C699.154 224.756 694.919 205.041 694.919 182.362C694.919 160.059 699.154 140.485 707.623 123.64C716.187 106.701 728.138 93.5265 743.477 84.116C758.817 74.6114 776.838 69.8591 797.541 69.8591C810.904 69.8591 823.514 72.0235 835.371 76.3523C847.322 80.587 857.862 87.1744 866.99 96.1144C876.213 105.054 883.459 116.441 888.729 130.275C893.999 144.014 896.634 160.388 896.634 179.397V195.066H718.916V160.623H847.652C847.558 150.836 845.44 142.132 841.3 134.509C837.159 126.793 831.372 120.723 823.937 116.3C816.597 111.877 808.034 109.666 798.247 109.666C787.801 109.666 778.626 112.206 770.721 117.288C762.816 122.276 756.652 128.863 752.229 137.05C747.9 145.143 745.689 154.036 745.595 163.729V193.795C745.595 206.406 747.9 217.228 752.512 226.262C757.123 235.202 763.569 242.071 771.85 246.871C780.131 251.576 789.824 253.929 800.929 253.929C808.363 253.929 815.091 252.893 821.114 250.823C827.137 248.659 832.36 245.506 836.783 241.366C841.206 237.225 844.546 232.096 846.805 225.979L894.516 231.343C891.505 243.954 885.764 254.964 877.295 264.374C868.92 273.691 858.192 280.937 845.111 286.113C832.03 291.194 817.068 293.735 800.223 293.735Z" fill="url(#paint3_linear_5_2)"/>
<path d="M990.962 162.458V289.5H939.863V72.6822H988.704V109.524H991.244C996.232 97.3848 1004.18 87.739 1015.1 80.5871C1026.11 73.4351 1039.71 69.8591 1055.89 69.8591C1070.86 69.8591 1083.89 73.0586 1095 79.4578C1106.19 85.8569 1114.85 95.1263 1120.97 107.266C1127.18 119.405 1130.24 134.133 1130.14 151.448V289.5H1079.04V159.353C1079.04 144.861 1075.28 133.521 1067.75 125.334C1060.32 117.147 1050.01 113.053 1036.84 113.053C1027.9 113.053 1019.95 115.03 1012.98 118.982C1006.11 122.84 1000.7 128.439 996.75 135.78C992.891 143.12 990.962 152.013 990.962 162.458Z" fill="url(#paint4_linear_5_2)"/>
<path d="M1278.08 293.735C1256.34 293.735 1237.56 289.218 1221.75 280.184C1206.04 271.056 1193.95 258.163 1185.48 241.507C1177.01 224.756 1172.77 205.041 1172.77 182.362C1172.77 160.059 1177.01 140.485 1185.48 123.64C1194.04 106.701 1205.99 93.5265 1221.33 84.116C1236.67 74.6114 1254.69 69.8591 1275.39 69.8591C1288.76 69.8591 1301.37 72.0235 1313.23 76.3523C1325.18 80.587 1335.72 87.1744 1344.84 96.1144C1354.07 105.054 1361.31 116.441 1366.58 130.275C1371.85 144.014 1374.49 160.388 1374.49 179.397V195.066H1196.77V160.623H1325.51C1325.41 150.836 1323.29 142.132 1319.15 134.509C1315.01 126.793 1309.23 120.723 1301.79 116.3C1294.45 111.877 1285.89 109.666 1276.1 109.666C1265.65 109.666 1256.48 112.206 1248.57 117.288C1240.67 122.276 1234.51 128.863 1230.08 137.05C1225.75 145.143 1223.54 154.036 1223.45 163.729V193.795C1223.45 206.406 1225.75 217.228 1230.37 226.262C1234.98 235.202 1241.42 242.071 1249.7 246.871C1257.99 251.576 1267.68 253.929 1278.78 253.929C1286.22 253.929 1292.95 252.893 1298.97 250.823C1304.99 248.659 1310.21 245.506 1314.64 241.366C1319.06 237.225 1322.4 232.096 1324.66 225.979L1372.37 231.343C1369.36 243.954 1363.62 254.964 1355.15 264.374C1346.77 273.691 1336.05 280.937 1322.96 286.113C1309.88 291.194 1294.92 293.735 1278.08 293.735Z" fill="url(#paint5_linear_5_2)"/>
<path d="M1461.3 289.5L1400.04 72.6822H1452.12L1490.24 225.132H1492.21L1531.17 72.6822H1582.7L1621.65 224.286H1623.77L1681.2 0H1733.43L1652.14 289.5H1598.93L1558.27 142.979H1555.31L1514.66 289.5H1461.3Z" fill="url(#paint6_linear_5_2)"/>
<defs>
<linearGradient id="paint0_linear_5_2" x1="0" y1="146.868" x2="1733.43" y2="146.868" gradientUnits="userSpaceOnUse">
<stop stop-color="#335FCB"/>
<stop offset="1" stop-color="#9E8FE5"/>
</linearGradient>
<linearGradient id="paint1_linear_5_2" x1="0" y1="146.868" x2="1733.43" y2="146.868" gradientUnits="userSpaceOnUse">
<stop stop-color="#335FCB"/>
<stop offset="1" stop-color="#9E8FE5"/>
</linearGradient>
<linearGradient id="paint2_linear_5_2" x1="0" y1="146.868" x2="1733.43" y2="146.868" gradientUnits="userSpaceOnUse">
<stop stop-color="#335FCB"/>
<stop offset="1" stop-color="#9E8FE5"/>
</linearGradient>
<linearGradient id="paint3_linear_5_2" x1="0" y1="146.868" x2="1733.43" y2="146.868" gradientUnits="userSpaceOnUse">
<stop stop-color="#335FCB"/>
<stop offset="1" stop-color="#9E8FE5"/>
</linearGradient>
<linearGradient id="paint4_linear_5_2" x1="0" y1="146.868" x2="1733.43" y2="146.868" gradientUnits="userSpaceOnUse">
<stop stop-color="#335FCB"/>
<stop offset="1" stop-color="#9E8FE5"/>
</linearGradient>
<linearGradient id="paint5_linear_5_2" x1="0" y1="146.868" x2="1733.43" y2="146.868" gradientUnits="userSpaceOnUse">
<stop stop-color="#335FCB"/>
<stop offset="1" stop-color="#9E8FE5"/>
</linearGradient>
<linearGradient id="paint6_linear_5_2" x1="0" y1="146.868" x2="1733.43" y2="146.868" gradientUnits="userSpaceOnUse">
<stop stop-color="#335FCB"/>
<stop offset="1" stop-color="#9E8FE5"/>
</linearGradient>
</defs>
</svg>
